<svg width="619" height="225" viewBox="0 0 619 225" fill="none" xmlns="http://www.w3.org/2000/svg">
<path fill-rule="evenodd" clip-rule="evenodd" d="M98.4999 59.5C83.8333 60 53.1999 65.4 47.9999 83C43.1999 98.6 53.6666 111.833 59.4999 116.5C60.8333 133 72.9 171 110.5 191C127.3 192.2 148.333 165.167 157.5 148.5C159.833 141.833 166 126.5 164.5 116.5C173.3 114.1 177.472 96 177 87.5C176.5 78.5 168.2 65.9 149 63.5C125 60.5 148 62.5 118.5 59C128.5 50.6 128.5 34 124.5 30.5C118.667 32 105.9 38.2 101.5 49C100.7 53 100.167 57.6666 100 59.5H98.4999ZM109.5 57C109.333 52.5 111.2 42.6 120 39C123 42 112.5 58 109.5 57ZM69.5 87.5C70.3 70.3 98.8333 66.6666 113 67C125.333 68.1666 151.8 72.2 159 79C166.2 85.8 163 95.5 160.5 99.5C157.333 102.333 151.7 110.1 154.5 118.5C156.9 151.3 126.667 175.57 111 183.736C102.667 178.403 85.4 161.436 83 136.236C80.6 111.036 99.5 104.667 109.5 104.5H131.5C137.458 104.815 143.628 108.124 141.776 104C135.776 92.5 103 98.5 101.5 98.5C100 98.5 68.5 104.5 69.5 87.5Z" fill="#F7F7F9"/>
<path d="M180.144 113.06C180.144 108.98 181.064 105.32 182.904 102.08C184.744 98.8 187.244 96.24 190.404 94.4C193.604 92.56 197.144 91.64 201.024 91.64C205.584 91.64 209.564 92.74 212.964 94.94C216.364 97.14 218.844 100.26 220.404 104.3H213.864C212.704 101.78 211.024 99.84 208.824 98.48C206.664 97.12 204.064 96.44 201.024 96.44C198.104 96.44 195.484 97.12 193.164 98.48C190.844 99.84 189.024 101.78 187.704 104.3C186.384 106.78 185.724 109.7 185.724 113.06C185.724 116.38 186.384 119.3 187.704 121.82C189.024 124.3 190.844 126.22 193.164 127.58C195.484 128.94 198.104 129.62 201.024 129.62C204.064 129.62 206.664 128.96 208.824 127.64C211.024 126.28 212.704 124.34 213.864 121.82H220.404C218.844 125.82 216.364 128.92 212.964 131.12C209.564 133.28 205.584 134.36 201.024 134.36C197.144 134.36 193.604 133.46 190.404 131.66C187.244 129.82 184.744 127.28 182.904 124.04C181.064 120.8 180.144 117.14 180.144 113.06ZM242.872 134.54C239.792 134.54 236.992 133.84 234.472 132.44C231.992 131.04 230.032 129.06 228.592 126.5C227.192 123.9 226.492 120.9 226.492 117.5C226.492 114.14 227.212 111.18 228.652 108.62C230.132 106.02 232.132 104.04 234.652 102.68C237.172 101.28 239.992 100.58 243.112 100.58C246.232 100.58 249.052 101.28 251.572 102.68C254.092 104.04 256.072 106 257.512 108.56C258.992 111.12 259.732 114.1 259.732 117.5C259.732 120.9 258.972 123.9 257.452 126.5C255.972 129.06 253.952 131.04 251.392 132.44C248.832 133.84 245.992 134.54 242.872 134.54ZM242.872 129.74C244.832 129.74 246.672 129.28 248.392 128.36C250.112 127.44 251.492 126.06 252.532 124.22C253.612 122.38 254.152 120.14 254.152 117.5C254.152 114.86 253.632 112.62 252.592 110.78C251.552 108.94 250.192 107.58 248.512 106.7C246.832 105.78 245.012 105.32 243.052 105.32C241.052 105.32 239.212 105.78 237.532 106.7C235.892 107.58 234.572 108.94 233.572 110.78C232.572 112.62 232.072 114.86 232.072 117.5C232.072 120.18 232.552 122.44 233.512 124.28C234.512 126.12 235.832 127.5 237.472 128.42C239.112 129.3 240.912 129.74 242.872 129.74ZM272.371 89.6V134H266.911V89.6H272.371ZM287.137 89.6V134H281.677V89.6H287.137ZM326.442 116.3C326.442 117.34 326.382 118.44 326.262 119.6H299.982C300.182 122.84 301.282 125.38 303.282 127.22C305.322 129.02 307.782 129.92 310.662 129.92C313.022 129.92 314.982 129.38 316.542 128.3C318.142 127.18 319.262 125.7 319.902 123.86H325.782C324.902 127.02 323.142 129.6 320.502 131.6C317.862 133.56 314.582 134.54 310.662 134.54C307.542 134.54 304.742 133.84 302.262 132.44C299.822 131.04 297.902 129.06 296.502 126.5C295.102 123.9 294.402 120.9 294.402 117.5C294.402 114.1 295.082 111.12 296.442 108.56C297.802 106 299.702 104.04 302.142 102.68C304.622 101.28 307.462 100.58 310.662 100.58C313.782 100.58 316.542 101.26 318.942 102.62C321.342 103.98 323.182 105.86 324.462 108.26C325.782 110.62 326.442 113.3 326.442 116.3ZM320.802 115.16C320.802 113.08 320.342 111.3 319.422 109.82C318.502 108.3 317.242 107.16 315.642 106.4C314.082 105.6 312.342 105.2 310.422 105.2C307.662 105.2 305.302 106.08 303.342 107.84C301.422 109.6 300.322 112.04 300.042 115.16H320.802ZM347.209 100.58C350.049 100.58 352.529 101.2 354.649 102.44C356.809 103.68 358.409 105.24 359.449 107.12V101.12H364.969V134.72C364.969 137.72 364.329 140.38 363.049 142.7C361.769 145.06 359.929 146.9 357.529 148.22C355.169 149.54 352.409 150.2 349.249 150.2C344.929 150.2 341.329 149.18 338.449 147.14C335.569 145.1 333.869 142.32 333.349 138.8H338.749C339.349 140.8 340.589 142.4 342.469 143.6C344.349 144.84 346.609 145.46 349.249 145.46C352.249 145.46 354.689 144.52 356.569 142.64C358.489 140.76 359.449 138.12 359.449 134.72V127.82C358.369 129.74 356.769 131.34 354.649 132.62C352.529 133.9 350.049 134.54 347.209 134.54C344.289 134.54 341.629 133.82 339.229 132.38C336.869 130.94 335.009 128.92 333.649 126.32C332.289 123.72 331.609 120.76 331.609 117.44C331.609 114.08 332.289 111.14 333.649 108.62C335.009 106.06 336.869 104.08 339.229 102.68C341.629 101.28 344.289 100.58 347.209 100.58ZM359.449 117.5C359.449 115.02 358.949 112.86 357.949 111.02C356.949 109.18 355.589 107.78 353.869 106.82C352.189 105.82 350.329 105.32 348.289 105.32C346.249 105.32 344.389 105.8 342.709 106.76C341.029 107.72 339.689 109.12 338.689 110.96C337.689 112.8 337.189 114.96 337.189 117.44C337.189 119.96 337.689 122.16 338.689 124.04C339.689 125.88 341.029 127.3 342.709 128.3C344.389 129.26 346.249 129.74 348.289 129.74C350.329 129.74 352.189 129.26 353.869 128.3C355.589 127.3 356.949 125.88 357.949 124.04C358.949 122.16 359.449 119.98 359.449 117.5ZM404.196 116.3C404.196 117.34 404.136 118.44 404.016 119.6H377.736C377.936 122.84 379.036 125.38 381.036 127.22C383.076 129.02 385.536 129.92 388.416 129.92C390.776 129.92 392.736 129.38 394.296 128.3C395.896 127.18 397.016 125.7 397.656 123.86H403.536C402.656 127.02 400.896 129.6 398.256 131.6C395.616 133.56 392.336 134.54 388.416 134.54C385.296 134.54 382.496 133.84 380.016 132.44C377.576 131.04 375.656 129.06 374.256 126.5C372.856 123.9 372.156 120.9 372.156 117.5C372.156 114.1 372.836 111.12 374.196 108.56C375.556 106 377.456 104.04 379.896 102.68C382.376 101.28 385.216 100.58 388.416 100.58C391.536 100.58 394.296 101.26 396.696 102.62C399.096 103.98 400.936 105.86 402.216 108.26C403.536 110.62 404.196 113.3 404.196 116.3ZM398.556 115.16C398.556 113.08 398.096 111.3 397.176 109.82C396.256 108.3 394.996 107.16 393.396 106.4C391.836 105.6 390.096 105.2 388.176 105.2C385.416 105.2 383.056 106.08 381.096 107.84C379.176 109.6 378.076 112.04 377.796 115.16H398.556ZM432.343 112.46C433.863 112.7 435.243 113.32 436.483 114.32C437.763 115.32 438.763 116.56 439.483 118.04C440.243 119.52 440.623 121.1 440.623 122.78C440.623 124.9 440.083 126.82 439.003 128.54C437.923 130.22 436.343 131.56 434.263 132.56C432.223 133.52 429.803 134 427.003 134H411.403V92.18H426.403C429.243 92.18 431.663 92.66 433.663 93.62C435.663 94.54 437.163 95.8 438.163 97.4C439.163 99 439.663 100.8 439.663 102.8C439.663 105.28 438.983 107.34 437.623 108.98C436.303 110.58 434.543 111.74 432.343 112.46ZM416.863 110.24H426.043C428.603 110.24 430.583 109.64 431.983 108.44C433.383 107.24 434.083 105.58 434.083 103.46C434.083 101.34 433.383 99.68 431.983 98.48C430.583 97.28 428.563 96.68 425.923 96.68H416.863V110.24ZM426.523 129.5C429.243 129.5 431.363 128.86 432.883 127.58C434.403 126.3 435.163 124.52 435.163 122.24C435.163 119.92 434.363 118.1 432.763 116.78C431.163 115.42 429.023 114.74 426.343 114.74H416.863V129.5H426.523ZM462.54 134.54C459.46 134.54 456.66 133.84 454.14 132.44C451.66 131.04 449.7 129.06 448.26 126.5C446.86 123.9 446.16 120.9 446.16 117.5C446.16 114.14 446.88 111.18 448.32 108.62C449.8 106.02 451.8 104.04 454.32 102.68C456.84 101.28 459.66 100.58 462.78 100.58C465.9 100.58 468.72 101.28 471.24 102.68C473.76 104.04 475.74 106 477.18 108.56C478.66 111.12 479.4 114.1 479.4 117.5C479.4 120.9 478.64 123.9 477.12 126.5C475.64 129.06 473.62 131.04 471.06 132.44C468.5 133.84 465.66 134.54 462.54 134.54ZM462.54 129.74C464.5 129.74 466.34 129.28 468.06 128.36C469.78 127.44 471.16 126.06 472.2 124.22C473.28 122.38 473.82 120.14 473.82 117.5C473.82 114.86 473.3 112.62 472.26 110.78C471.22 108.94 469.86 107.58 468.18 106.7C466.5 105.78 464.68 105.32 462.72 105.32C460.72 105.32 458.88 105.78 457.2 106.7C455.56 107.58 454.24 108.94 453.24 110.78C452.24 112.62 451.74 114.86 451.74 117.5C451.74 120.18 452.22 122.44 453.18 124.28C454.18 126.12 455.5 127.5 457.14 128.42C458.78 129.3 460.58 129.74 462.54 129.74ZM484.539 117.44C484.539 114.08 485.219 111.14 486.579 108.62C487.939 106.06 489.799 104.08 492.159 102.68C494.559 101.28 497.219 100.58 500.139 100.58C503.019 100.58 505.519 101.2 507.639 102.44C509.759 103.68 511.339 105.24 512.379 107.12V101.12H517.899V134H512.379V127.88C511.299 129.8 509.679 131.4 507.519 132.68C505.399 133.92 502.919 134.54 500.079 134.54C497.159 134.54 494.519 133.82 492.159 132.38C489.799 130.94 487.939 128.92 486.579 126.32C485.219 123.72 484.539 120.76 484.539 117.44ZM512.379 117.5C512.379 115.02 511.879 112.86 510.879 111.02C509.879 109.18 508.519 107.78 506.799 106.82C505.119 105.82 503.259 105.32 501.219 105.32C499.179 105.32 497.319 105.8 495.639 106.76C493.959 107.72 492.619 109.12 491.619 110.96C490.619 112.8 490.119 114.96 490.119 117.44C490.119 119.96 490.619 122.16 491.619 124.04C492.619 125.88 493.959 127.3 495.639 128.3C497.319 129.26 499.179 129.74 501.219 129.74C503.259 129.74 505.119 129.26 506.799 128.3C508.519 127.3 509.879 125.88 510.879 124.04C511.879 122.16 512.379 119.98 512.379 117.5ZM532.586 106.46C533.546 104.58 534.906 103.12 536.666 102.08C538.466 101.04 540.646 100.52 543.206 100.52V106.16H541.766C535.646 106.16 532.586 109.48 532.586 116.12V134H527.126V101.12H532.586V106.46ZM547.469 117.44C547.469 114.08 548.149 111.14 549.509 108.62C550.869 106.06 552.729 104.08 555.089 102.68C557.489 101.28 560.169 100.58 563.129 100.58C565.689 100.58 568.069 101.18 570.269 102.38C572.469 103.54 574.149 105.08 575.309 107V89.6H580.829V134H575.309V127.82C574.229 129.78 572.629 131.4 570.509 132.68C568.389 133.92 565.909 134.54 563.069 134.54C560.149 134.54 557.489 133.82 555.089 132.38C552.729 130.94 550.869 128.92 549.509 126.32C548.149 123.72 547.469 120.76 547.469 117.44ZM575.309 117.5C575.309 115.02 574.809 112.86 573.809 111.02C572.809 109.18 571.449 107.78 569.729 106.82C568.049 105.82 566.189 105.32 564.149 105.32C562.109 105.32 560.249 105.8 558.569 106.76C556.889 107.72 555.549 109.12 554.549 110.96C553.549 112.8 553.049 114.96 553.049 117.44C553.049 119.96 553.549 122.16 554.549 124.04C555.549 125.88 556.889 127.3 558.569 128.3C560.249 129.26 562.109 129.74 564.149 129.74C566.189 129.74 568.049 129.26 569.729 128.3C571.449 127.3 572.809 125.88 573.809 124.04C574.809 122.16 575.309 119.98 575.309 117.5Z" fill="white"/>
</svg>
