<svg width="461" height="683" viewBox="0 0 461 683" fill="none" xmlns="http://www.w3.org/2000/svg">
<rect x="10" y="10" width="441" height="663" rx="26" fill="#F7F7F9"/>
<path d="M42.9834 53.4014H149.764M63.4307 84.7407H404.977M42.9834 116.835H378.092M42.9834 148.93H404.977M42.9834 180.269H397.025M42.9834 212.364H378.092M42.9834 244.458H404.977M42.9834 276.553H397.025M42.9834 308.647H404.977M42.9834 339.987H386.044M42.9834 372.081H404.977M42.9834 404.931H331.897M42.9834 437.025H397.025M42.9834 469.12H404.977M63.4307 500.459H364.082M42.9834 532.554H404.977M42.9834 564.648H404.977M42.9834 596.743H404.977M42.9834 628.837H404.977" stroke="#2B2D42" stroke-width="20" stroke-linecap="round"/>
<path d="M276 150.582C276 150.582 287.129 126.475 301.202 105.097M341.723 171.596C341.723 171.596 345.159 145.029 344.711 119.008M301.202 105.097C313.567 86.3132 328.205 69.6358 339.565 73.268C350.925 76.9001 344.317 96.1449 344.711 119.008M301.202 105.097C306.318 113.732 314.183 126.045 344.711 119.008M364.665 127.75L376.333 131.481M388.478 135.364L376.333 131.481M376.333 131.481L371.993 145.054M376.333 131.481L381.13 116.479" stroke="#E86A92" stroke-width="18" stroke-linecap="round"/>
</svg>
