<svg width="528" height="740" viewBox="0 0 528 740" fill="none" xmlns="http://www.w3.org/2000/svg">
<path d="M334.002 58.8009C330.159 53.356 297.137 72.8164 281.106 83.2273L304.717 144.939C322.843 134.197 357.932 108.554 353.277 91.9152C347.458 71.1172 338.805 65.6069 334.002 58.8009Z" fill="#FF7B7B"/>
<path d="M428.986 99.1755C427.49 96.4873 404.378 104.474 393.008 108.804L385.883 125.566L395.34 178.329C411.87 171.917 445.31 155.957 446.832 143.41C448.734 127.727 430.856 102.536 428.986 99.1755Z" fill="#FF7B7B"/>
<path d="M317.772 293.852C324.901 272.254 347.176 257.73 357.422 253.167C359.513 246.238 363.469 231.183 362.569 226.402C361.444 220.427 287.009 194.651 302.318 219.849C314.566 240.008 308.619 273.714 304.115 288.047C297.954 366.056 285.627 526.396 285.607 543.686C285.587 560.976 301.908 604.489 310.071 624.084C315.624 625.101 324.904 622.986 317.591 606.391C290.713 548.055 304.35 516.836 299.593 510.783C294.836 504.73 308.862 320.85 317.772 293.852Z" fill="#71A47F"/>
<path d="M256.975 207.539C211.857 154.35 243.776 62.4177 265.375 23.1C283.284 40.9742 318.175 86.0773 314.467 123.496C336.134 93.3115 369.929 62.5825 387.684 48.3358C398.918 62.6452 415.258 98.1521 409.211 143.245C439.357 121.169 476.697 114.148 491.598 113.396C503.727 126.248 517.727 164.011 476.701 212.246C435.674 260.482 369.934 257.072 342.192 249.337C332.448 254.002 323.846 255.609 317.969 255.455C315.493 251.584 312.685 246.619 309.879 240.86C304.272 243.417 285.842 240.332 256.975 207.539Z" fill="#FF9B9B"/>
<path d="M207.767 542.81C206.528 449.413 175.77 361.775 160.546 329.632C143.085 301.259 124.42 275.887 148.16 333.489C185.327 423.673 194.607 455.121 198.477 532.009C202.348 608.898 155.901 662.642 148.16 676.528C141.967 687.637 158.997 681.157 168.287 676.528C181.447 649.099 207.767 583.954 207.767 542.81Z" fill="#71A47F"/>
<path d="M117.919 313.721C114.005 299.318 126.417 288.173 133.111 284.401C143.669 284.401 159.375 302.662 162.723 323.752C165.401 340.624 144.098 341.412 133.111 339.698C129.678 337.04 121.833 328.124 117.919 313.721Z" fill="#B677C6"/>
<path d="M111.482 304.462C124.46 281.006 114.314 273.427 107.62 272.57C94.0242 270.924 89.0803 293.145 88.3078 304.462C90.6253 314.235 98.5045 327.918 111.482 304.462Z" fill="#B677C6"/>
<path d="M111.482 264.34C132.596 256.109 109.422 232.962 107.62 231.676C94.7451 227.046 93.7151 238.363 91.1402 240.163C88.5653 241.964 90.3678 272.57 111.482 264.34Z" fill="#B677C6"/>
<path d="M81.8705 290.059C93.4062 271.129 82.0422 257.31 74.9183 252.766C54.525 259.761 55.7781 286.887 58.9538 299.575C61.7862 304.291 70.3349 308.989 81.8705 290.059Z" fill="#B677C6"/>
<path d="M81.8705 209.042C88.0503 210.243 100.307 209.403 99.895 196.44C99.895 164.805 61.7862 177.407 66.9361 192.325C62.8162 201.378 75.1758 207.242 81.8705 209.042Z" fill="#B677C6"/>
<path d="M54.0615 244.278C71.5709 228.229 67.3652 215.987 63.0737 211.872C42.8864 202.818 37.4962 221.302 37.3246 231.676C35.608 242.564 36.5521 260.327 54.0615 244.278Z" fill="#B677C6"/>
<path d="M49.1692 167.891C55.9669 150.402 44.1052 137.971 37.3246 133.941C20.5876 130.855 22.905 144.744 22.905 148.601C22.905 152.459 40.672 189.753 49.1692 167.891Z" fill="#B677C6"/>
<path d="M41.1869 290.059C38.1829 281.486 26.9734 268.352 6.16811 284.401C-19.8385 304.462 45.0493 303.176 41.1869 290.059Z" fill="#B677C6"/>
<path d="M55.8639 339.698C50.0961 325.501 68.5668 320.237 78.5232 319.379C90.1103 319.379 81.8705 326.324 81.8705 328.381C81.8705 330.439 63.0737 357.444 55.8639 339.698Z" fill="#B677C6"/>
<path d="M10.8029 317.322C16.1588 308.474 33.2905 313.635 41.1869 317.322C37.2731 327.61 26.5099 332.582 21.6176 333.782C15.7811 331.982 5.44713 326.169 10.8029 317.322Z" fill="#B677C6"/>
<path d="M91.1402 158.375C88.9945 142.343 80.3771 112.646 63.0737 122.11C41.4444 133.941 78.2657 164.29 91.1402 158.375Z" fill="#B677C6"/>
<path d="M37.3246 74.7863C59.3658 69.4366 61.6146 92.9615 59.9838 105.393C59.8668 114.857 52.7253 111.737 49.1692 108.993C36.0371 99.82 15.2833 80.136 37.3246 74.7863Z" fill="#B677C6"/>
<path d="M72.8584 60.6406C66.1636 50.7814 57.2544 30.1886 75.1758 26.6907C97.5775 22.3184 85.7329 56.7826 72.8584 60.6406Z" fill="#B677C6"/>
<path d="M159.375 244.278C150.724 244.278 139.978 256.109 135.686 262.025C135.686 265.54 136.613 272.57 140.321 272.57C144.956 272.57 159.375 268.969 167.358 272.57C175.34 276.17 185.382 277.199 185.125 257.652C184.867 238.106 170.19 244.278 159.375 244.278Z" fill="#B677C6"/>
<path d="M192.077 319.379C200.523 294.277 170.705 282.858 154.741 280.286C152.166 281.657 147.737 285.018 150.621 287.487C154.226 290.574 181.52 350.757 192.077 319.379Z" fill="#B677C6"/>
<path d="M117.919 228.332C116.065 232.653 125.387 246.422 130.279 252.766C141.081 247.879 138.519 244.278 142.896 240.163C147.273 236.048 140.321 228.332 135.686 221.645C131.051 214.958 120.237 222.931 117.919 228.332Z" fill="#B677C6"/>
<path d="M145.213 178.179C127.498 166.862 117.061 185.638 114.057 196.44C112.409 212.695 119.722 211.614 123.584 209.042C133.026 204.842 150.569 192.788 145.213 178.179Z" fill="#B677C6"/>
<path d="M107.62 366.189C118.743 364.337 112.255 340.212 107.62 328.381C107.019 329.153 104.633 330.645 99.895 330.439C93.9726 330.182 93.7152 368.504 107.62 366.189Z" fill="#B677C6"/>
<path d="M59.9838 60.6406C57.2372 50.0098 49.4267 30.4972 40.157 37.4929C28.5699 46.2376 53.0315 74.272 59.9838 60.6406Z" fill="#B677C6"/>
<path d="M97.0626 40.8365C91.2948 40.4249 88.6512 53.8677 88.0504 60.6406C97.2342 60.6406 115.808 58.4801 116.632 49.8383C117.662 39.0361 104.272 41.3509 97.0626 40.8365Z" fill="#B677C6"/>
<path d="M99.895 76.3295C91.0544 82.0735 77.6992 97.008 95.0026 110.794C116.632 128.026 121.524 72.7287 99.895 76.3295Z" fill="#B677C6"/>
<path d="M135.686 152.202C142.896 143.766 130.622 138.914 123.584 137.542C111.431 136.102 105.474 146.715 104.015 152.202C104.272 157.432 106.126 168.2 111.482 169.434C118.177 170.978 126.674 162.747 135.686 152.202Z" fill="#B677C6"/>
<path d="M159.375 126.74C157.316 103.901 142.724 96.9909 135.686 96.3907C118.949 96.3907 130.279 113.88 133.111 118.767C135.944 123.653 159.375 137.542 159.375 126.74Z" fill="#B677C6"/>
<path d="M230.701 284.401C230.958 276.428 194.394 280.286 192.077 280.286C183.322 286.458 211.389 304.462 217.053 304.462C222.718 304.462 230.443 292.374 230.701 284.401Z" fill="#B677C6"/>
<path d="M148.303 228.332C136.974 218.867 146.329 208.785 152.423 204.927C181.262 202.355 185.125 217.53 185.125 221.645C185.125 225.76 182.292 231.676 167.358 228.332C152.423 224.989 158.088 231.933 148.303 228.332Z" fill="#B677C6"/>
<path d="M207.011 240.163C209.844 240.163 218.341 226.275 202.376 221.645C193.879 221.645 189.502 231.676 192.077 240.163C194.652 248.651 204.179 240.163 207.011 240.163Z" fill="#B677C6"/>
<path d="M178.687 174.321C177.245 161.358 166.929 156.575 161.95 155.803C150.621 155.803 146.243 154.517 142.896 158.375C139.549 162.233 145.213 165.062 152.423 165.834C159.633 166.605 159.375 178.179 161.95 184.094C164.525 190.01 180.49 190.524 178.687 174.321Z" fill="#B677C6"/>
<path d="M329.189 367.329C327.906 369.996 320.312 372.078 300.199 359.069C284.711 350.81 237.344 324.999 227.082 328.096C216.82 331.193 162.175 373.524 150.117 406.82C125.283 422.72 129.679 460.077 134.981 476.768C139.428 492.771 147.808 529.371 145.756 547.748C165.767 541.038 216.05 473.413 221.951 455.861C226.697 441.743 215.674 419.15 197.961 401.816C214.417 411.49 238.764 418.769 251.967 421.79C311.076 427.572 328.077 387.892 329.189 367.329Z" fill="#71A47F"/>
<path d="M295.365 530.53C306.793 530.53 277.591 558.801 269.618 579.483C284.265 562.52 318.272 532.894 346.087 540.543C381.774 550.357 422.672 560.37 432.296 548.754C441.919 537.139 447.733 568.782 435.904 580.798C424.076 592.814 346.689 682.537 307.594 658.504C284.818 644.503 271.93 627.174 265.678 614.793C254.404 642.157 223.073 679.402 229.004 690.948C236.823 706.169 228.403 746.824 219.381 739.013C210.359 731.203 202.54 719.587 209.357 708.572C216.173 697.557 204.746 701.362 209.357 685.14C210.281 681.889 214.713 674.71 220.482 665.821C208.895 673.12 201.298 661.907 190.311 663.11C175.675 664.712 163.245 643.083 163.245 625.259C177.68 638.076 219.381 610.438 222.99 603.429C225.42 598.708 242.703 600.28 255.007 602.289C254.826 601.284 254.39 600.517 253.664 600.024C243.038 592.814 216.775 604.046 216.775 592.814C216.775 564.977 206.75 538.54 229.004 537.139C246.807 536.017 275.45 516.377 282.333 520.716L295.365 530.53Z" fill="#71A47F"/>
<path d="M252.996 425.436C253.24 425.237 253.487 425.039 253.737 424.843C297.604 390.333 286.201 375.136 291.427 363.58C296.653 352.024 341.154 294.876 380.903 311.181C367.284 369.278 358.257 357.722 356.198 393.34C354.243 427.165 356.573 438.29 350.981 440.681C352.833 440.578 354.578 440.674 356.198 440.99C385.496 446.688 398.64 481.357 398.165 491.33C397.785 499.308 401.491 512.806 403.391 518.558C384.546 523.782 380.903 518.558 375.202 518.558C369.501 518.558 359.366 504.944 332.127 513.334C311.065 508.11 263.08 573.489 253.737 573.489C244.657 582.829 224.788 601.255 217.946 600.242C209.394 598.975 156.501 593.435 139.081 597.709C121.661 601.983 38.1579 607.888 33.1347 604.991C24.9 600.242 42.3199 568.898 59.5816 551.168C68.5942 541.911 111.267 536.918 128.148 530.807C124.409 529.061 121.981 528.178 121.661 526.79C120.71 522.674 97.114 522.199 95.5304 522.674C93.9467 523.149 61.3236 491.805 63.5408 479.774C65.7579 467.743 97.5891 466.793 102.34 424.843C117.543 418.985 114.059 436.24 132.271 430.542C150.483 424.843 110.258 423.735 109.15 414.87C108.041 406.005 103.109 398.09 111.842 398.09C131.585 399.356 177.341 391.726 202.426 351.074C225.864 347.433 209.078 354.24 215.412 366.271C221.747 378.302 231.249 393.34 240.117 393.34C246.334 393.34 250.896 412.38 252.996 425.436Z" fill="#F2F0D9"/>
<path d="M120.073 525.942C120.149 526.068 120.284 526.238 120.489 526.446C124.978 528.222 164.479 514.141 176.565 504.691C189.385 494.667 227.848 509.503 221.437 492.663C215.027 475.823 251.286 458.181 255.693 448.959C260.1 439.737 303.771 449.761 292.152 455.374C280.533 460.987 276.126 474.62 268.914 483.842C261.703 493.064 263.305 512.71 251.286 525.942C239.266 539.173 250.485 565.436 248.481 568.643C246.478 571.851 237.864 563.431 227.848 553.006C217.832 542.581 153.728 530.753 141.708 530.753C129.689 530.753 134.096 533.56 127.685 530.753C123.526 528.932 121.369 527.339 120.489 526.446C120.216 526.338 120.073 526.172 120.073 525.942Z" fill="#F6E9B8"/>
</svg>
